G75*
%MOIN*%
%OFA0B0*%
%FSLAX24Y24*%
%IPPOS*%
%LPD*%
%AMOC8*
5,1,8,0,0,1.08239X$1,22.5*
%
%ADD10C,0.0130*%
%ADD11C,0.0660*%
%ADD12OC8,0.0860*%
%ADD13OC8,0.0700*%
%ADD14OC8,0.1000*%
%ADD15C,0.0860*%
%ADD16C,0.0280*%
%ADD17C,0.0320*%
D10*
X025720Y019924D02*
X025897Y020101D01*
X025809Y020101D02*
X026074Y020101D01*
X026074Y019924D02*
X026074Y020455D01*
X025809Y020455D01*
X025720Y020366D01*
X025720Y020190D01*
X025809Y020101D01*
X026328Y019924D02*
X026682Y019924D01*
X026682Y020455D01*
X026328Y020455D01*
X026505Y020190D02*
X026682Y020190D01*
X026936Y020190D02*
X027024Y020101D01*
X027289Y020101D01*
X027289Y019924D02*
X027289Y020455D01*
X027024Y020455D01*
X026936Y020366D01*
X026936Y020190D01*
X027543Y020190D02*
X027632Y020101D01*
X027897Y020101D01*
X027897Y019924D02*
X027897Y020455D01*
X027632Y020455D01*
X027543Y020366D01*
X027543Y020190D01*
X028151Y020366D02*
X028151Y020013D01*
X028240Y019924D01*
X028416Y019924D01*
X028505Y020013D01*
X028505Y020366D01*
X028416Y020455D01*
X028240Y020455D01*
X028151Y020366D01*
X028759Y020366D02*
X028847Y020455D01*
X029024Y020455D01*
X029112Y020366D01*
X029112Y020013D01*
X029024Y019924D01*
X028847Y019924D01*
X028759Y020013D01*
D11*
X010668Y013256D02*
X010008Y013256D01*
X007668Y013256D02*
X007008Y013256D01*
X006358Y015264D02*
X006358Y015924D01*
X006358Y018264D02*
X006358Y018924D01*
X006358Y010066D02*
X006358Y009406D01*
X006358Y007066D02*
X006358Y006406D01*
X007008Y004693D02*
X007668Y004693D01*
X010008Y004693D02*
X010668Y004693D01*
D12*
X011956Y004161D03*
X015956Y004161D03*
X015956Y012960D03*
X011956Y012960D03*
D13*
X018681Y012539D03*
X018681Y013539D03*
X018681Y004681D03*
X018681Y003681D03*
D14*
X021539Y004952D03*
X021539Y006952D03*
X021539Y008952D03*
X027539Y007952D03*
X027539Y005952D03*
X027539Y009952D03*
X021539Y013811D03*
X021539Y015811D03*
X021539Y017811D03*
X027539Y018811D03*
X027539Y016811D03*
X027539Y014811D03*
X003996Y013944D03*
X003996Y017094D03*
X003996Y009811D03*
X003996Y006661D03*
D15*
X008606Y006454D02*
X008606Y007314D01*
X008606Y009404D02*
X008606Y010264D01*
X014516Y010264D02*
X014516Y009404D01*
X016476Y009404D02*
X016476Y010264D01*
X018446Y010264D02*
X018446Y009404D01*
X018446Y007314D02*
X018446Y006454D01*
X016476Y006454D02*
X016476Y007314D01*
X014516Y007314D02*
X014516Y006454D01*
X014516Y015214D02*
X014516Y016074D01*
X016476Y016074D02*
X016476Y015214D01*
X018446Y015214D02*
X018446Y016074D01*
X018446Y018164D02*
X018446Y019024D01*
X016476Y019024D02*
X016476Y018164D01*
X014516Y018164D02*
X014516Y019024D01*
X008606Y019024D02*
X008606Y018164D01*
X008606Y016074D02*
X008606Y015214D01*
D16*
X008582Y015608D02*
X008606Y015644D01*
X008582Y015608D02*
X007352Y015608D01*
X007352Y013295D01*
X007338Y013256D01*
X005384Y012557D02*
X003996Y013944D01*
X006358Y015594D02*
X006368Y015608D01*
X007352Y015608D01*
X005433Y018561D02*
X004006Y017133D01*
X003996Y017094D01*
X005433Y018561D02*
X006319Y018561D01*
X006358Y018594D01*
X008606Y018594D02*
X008632Y018561D01*
X013676Y013516D01*
X013947Y013787D01*
X016309Y013787D01*
X016555Y013541D01*
X018671Y013541D01*
X018681Y013539D01*
X019655Y014378D02*
X021181Y012852D01*
X026889Y012852D01*
X027539Y014811D02*
X025610Y016740D01*
X021279Y016740D01*
X019458Y018561D01*
X018474Y018561D01*
X018446Y018594D01*
X017588Y018167D02*
X017588Y019299D01*
X018130Y019840D01*
X019508Y019840D01*
X021525Y017822D01*
X021539Y017811D01*
X020295Y016887D02*
X021328Y015854D01*
X021525Y015854D01*
X021539Y015811D01*
X020295Y016887D02*
X018130Y016887D01*
X016899Y015657D01*
X016506Y015657D01*
X016476Y015644D01*
X014931Y015657D02*
X016653Y017380D01*
X016801Y017380D01*
X017588Y018167D01*
X016506Y018610D02*
X016506Y019053D01*
X017884Y020431D01*
X023937Y020431D01*
X027529Y016838D01*
X027539Y016811D01*
X027578Y018807D02*
X027539Y018811D01*
X021525Y013836D02*
X021539Y013811D01*
X021525Y013836D02*
X019754Y015608D01*
X018474Y015608D01*
X018446Y015644D01*
X019655Y014378D02*
X014242Y014378D01*
X013700Y014919D01*
X013700Y016395D01*
X014488Y017183D01*
X014488Y018561D01*
X014516Y018594D01*
X016476Y018594D02*
X016506Y018610D01*
X014931Y015657D02*
X014537Y015657D01*
X014516Y015644D01*
X013676Y013516D02*
X012273Y012114D01*
X011535Y012114D01*
X010452Y013196D01*
X010338Y013256D01*
X010305Y013246D01*
X008606Y009834D02*
X008582Y009801D01*
X008139Y009801D01*
X006358Y009736D02*
X006319Y009752D01*
X004055Y009752D01*
X003996Y009811D01*
X003996Y006661D02*
X006663Y003994D01*
X007893Y003994D01*
X007338Y004693D02*
X007352Y004732D01*
X007352Y006750D01*
X006368Y006750D01*
X006358Y006736D01*
X007352Y006750D02*
X008484Y006750D01*
X008582Y006848D01*
X008606Y006884D01*
X008730Y006848D01*
X009474Y006903D01*
X011984Y004393D01*
X011929Y004191D01*
X011956Y004161D01*
X012323Y003354D02*
X011584Y003354D01*
X010354Y004584D01*
X010338Y004693D01*
X010305Y004683D01*
X012323Y003354D02*
X013947Y004978D01*
X016309Y004978D01*
X016604Y004683D01*
X018671Y004683D01*
X018681Y004681D01*
X018671Y003698D02*
X018681Y003681D01*
X018671Y003698D02*
X016407Y003698D01*
X015964Y004141D01*
X015956Y004161D01*
X016210Y005569D02*
X015620Y006159D01*
X015620Y007586D01*
X016456Y008423D01*
X016456Y009801D01*
X016476Y009834D01*
X015620Y010539D02*
X016161Y011080D01*
X019409Y011080D01*
X021525Y008964D01*
X021539Y008952D01*
X020197Y008128D02*
X021328Y006996D01*
X021525Y006996D01*
X021539Y006952D01*
X021279Y007881D02*
X025610Y007881D01*
X027539Y005952D01*
X028464Y005569D02*
X028464Y007045D01*
X027578Y007931D01*
X027539Y007952D01*
X027578Y009948D02*
X027539Y009952D01*
X028464Y005569D02*
X026889Y003994D01*
X021181Y003994D01*
X019606Y005569D01*
X019655Y006848D02*
X018474Y006848D01*
X018446Y006884D01*
X019655Y006848D02*
X021525Y004978D01*
X021539Y004952D01*
X021279Y007881D02*
X019360Y009801D01*
X018474Y009801D01*
X018446Y009834D01*
X018130Y008128D02*
X020197Y008128D01*
X018130Y008128D02*
X016899Y006897D01*
X016506Y006897D01*
X016476Y006884D01*
X014537Y006897D02*
X014516Y006884D01*
X016358Y012557D02*
X015964Y012950D01*
X015956Y012960D01*
X016358Y012557D02*
X018671Y012557D01*
X018681Y012539D01*
D17*
X006539Y003759D02*
X003866Y006433D01*
X003921Y006598D02*
X003866Y006653D01*
X003866Y006763D01*
X003893Y006791D01*
X004086Y006791D01*
X004114Y006763D01*
X004114Y006598D01*
X004141Y006570D01*
X004086Y006570D01*
X004031Y006515D01*
X004031Y006901D01*
X004059Y006929D01*
X004748Y006929D01*
X006043Y008224D01*
X006319Y008500D01*
X005740Y008500D01*
X004114Y006874D01*
X004334Y006653D01*
X004334Y006598D01*
X004362Y006736D02*
X004500Y006598D01*
X004500Y006378D01*
X004197Y006681D01*
X004141Y006681D01*
X004004Y006598D02*
X003921Y006598D01*
X004362Y006736D02*
X004693Y006736D01*
X004748Y006681D01*
X004748Y006570D01*
X004665Y006488D01*
X004665Y006515D01*
X006181Y008031D01*
X007614Y008031D01*
X007807Y008224D01*
X008165Y008582D01*
X008165Y008610D01*
X007889Y008885D01*
X007945Y009023D02*
X007311Y008389D01*
X007669Y008389D01*
X007724Y008444D01*
X007724Y008527D01*
X008578Y009381D01*
X008523Y009630D02*
X008523Y010153D01*
X008413Y010263D01*
X008413Y010429D01*
X008441Y010456D01*
X008165Y010456D01*
X007917Y010208D01*
X007917Y009244D01*
X007008Y008334D01*
X007008Y008389D01*
X008275Y009657D01*
X008275Y009960D01*
X008055Y010181D01*
X008220Y010181D01*
X008303Y010263D01*
X008303Y009161D01*
X008165Y009023D01*
X007945Y009023D01*
X008027Y009244D02*
X008027Y009354D01*
X008468Y009795D01*
X008496Y009822D02*
X008634Y009685D01*
X008578Y009685D01*
X008523Y009630D01*
X008496Y009822D02*
X008496Y010015D01*
X008551Y010070D01*
X008689Y010070D01*
X008826Y009933D01*
X008826Y009244D01*
X008165Y008582D01*
X007807Y008224D02*
X006043Y008224D01*
X005905Y008334D02*
X004665Y007094D01*
X004665Y007067D01*
X004858Y006846D02*
X004803Y006791D01*
X004803Y005937D01*
X004637Y006240D02*
X004637Y006267D01*
X006319Y006350D02*
X006346Y006378D01*
X006511Y006378D01*
X006622Y006488D01*
X007145Y006488D01*
X007256Y006378D01*
X007256Y004862D01*
X007145Y004972D01*
X007035Y004972D01*
X006539Y005468D01*
X006401Y005468D01*
X006401Y006157D01*
X006484Y006240D01*
X006842Y006240D01*
X006870Y006212D01*
X006952Y006212D01*
X007063Y006102D01*
X007063Y005165D01*
X006649Y005578D01*
X006649Y005661D01*
X006622Y005689D01*
X006622Y005992D01*
X006760Y005992D01*
X006842Y005909D01*
X006842Y005578D01*
X007035Y005771D01*
X007035Y005909D01*
X007614Y005523D02*
X008634Y006543D01*
X008634Y006626D01*
X008441Y006433D01*
X008165Y006433D01*
X008055Y006515D02*
X007917Y006378D01*
X007917Y006240D01*
X007614Y006543D01*
X007586Y006543D01*
X008000Y006956D01*
X008661Y006956D01*
X008716Y007011D01*
X008716Y007039D01*
X008551Y007204D01*
X008413Y007204D01*
X008385Y007232D01*
X008082Y007232D01*
X007807Y006956D01*
X007724Y006956D01*
X007697Y006929D01*
X006622Y006929D01*
X006594Y006956D01*
X006374Y006956D01*
X006319Y006901D01*
X006319Y006350D01*
X006208Y007067D02*
X006346Y007204D01*
X007697Y007204D01*
X008000Y007507D01*
X008248Y007507D01*
X008358Y007397D01*
X008606Y007397D01*
X008771Y007232D01*
X008826Y007232D01*
X008909Y007315D01*
X009102Y007315D01*
X008992Y007204D01*
X008689Y007204D01*
X008854Y007039D01*
X008854Y007011D01*
X008882Y007039D01*
X009019Y007039D01*
X009157Y007177D01*
X009212Y007177D01*
X009515Y006874D01*
X009598Y006874D01*
X010204Y006267D01*
X010204Y006185D01*
X009956Y006433D01*
X008854Y006433D01*
X008854Y006543D01*
X008882Y006570D01*
X009433Y006570D01*
X009488Y006708D02*
X008992Y006708D01*
X008964Y006681D01*
X008661Y006736D02*
X008661Y006212D01*
X010948Y006212D01*
X009653Y007507D01*
X009240Y007507D01*
X009102Y007507D01*
X009102Y007480D01*
X008716Y007094D01*
X008634Y006874D02*
X008634Y006626D01*
X008634Y006543D02*
X008634Y006185D01*
X008606Y006212D01*
X007972Y006212D01*
X007807Y006047D01*
X007807Y004641D01*
X007779Y004614D01*
X007421Y004614D01*
X007669Y004862D01*
X007669Y005027D01*
X007586Y005110D01*
X007586Y005303D01*
X007641Y005358D01*
X007641Y006488D01*
X007669Y006515D01*
X008055Y006515D01*
X008578Y006819D02*
X008661Y006736D01*
X008634Y006874D02*
X008441Y007067D01*
X008441Y007177D01*
X008771Y007507D01*
X009102Y007507D01*
X009240Y007507D02*
X011830Y004917D01*
X011830Y004586D01*
X012023Y004393D01*
X012023Y004476D01*
X011968Y004531D01*
X011968Y004834D01*
X011941Y004862D01*
X011941Y004944D01*
X011693Y005193D01*
X011693Y004118D01*
X011830Y004118D01*
X011858Y004145D01*
X011858Y004118D01*
X011941Y004035D01*
X012216Y004035D01*
X012216Y004944D01*
X010948Y006212D01*
X010508Y004834D02*
X009130Y004834D01*
X008275Y003980D01*
X007862Y003980D01*
X007862Y003870D01*
X007393Y003870D01*
X007586Y003842D02*
X007586Y003759D01*
X007614Y003787D01*
X007834Y003787D01*
X008055Y003759D02*
X008413Y003759D01*
X009019Y004366D01*
X009074Y004311D01*
X010397Y004311D01*
X010204Y004559D02*
X011224Y003539D01*
X011224Y003429D01*
X011169Y003319D02*
X012685Y003319D01*
X014366Y005000D01*
X014008Y005000D01*
X013787Y004779D01*
X013787Y004641D01*
X014366Y005000D02*
X016350Y005000D01*
X016488Y004862D01*
X018748Y004862D01*
X018748Y004614D01*
X018665Y004531D01*
X018665Y004504D01*
X016819Y004504D01*
X016405Y004917D01*
X016130Y004366D02*
X016681Y003815D01*
X018610Y003815D01*
X018637Y003787D01*
X018637Y003842D01*
X018610Y003870D01*
X016598Y003870D01*
X016295Y004173D01*
X015771Y004173D01*
X015689Y004090D01*
X015689Y004035D01*
X016157Y003567D01*
X016240Y003484D01*
X018637Y003484D01*
X018748Y003594D01*
X018748Y003622D01*
X018748Y003732D01*
X018748Y003622D02*
X018693Y003567D01*
X016157Y003567D01*
X016047Y004173D02*
X015882Y004173D01*
X015854Y004145D01*
X015854Y004200D01*
X015992Y004338D01*
X016102Y004338D01*
X016130Y004366D01*
X016791Y005468D02*
X018307Y005468D01*
X018334Y005496D01*
X019299Y005468D02*
X021035Y003732D01*
X026933Y003732D01*
X028752Y005551D01*
X028752Y007507D01*
X028614Y007645D01*
X028614Y005689D01*
X026823Y003897D01*
X021008Y003897D01*
X019437Y005468D01*
X019299Y005468D01*
X016819Y005468D01*
X016791Y005468D02*
X016681Y005578D01*
X016157Y005578D01*
X016047Y005689D01*
X016019Y005689D01*
X015964Y005744D02*
X015854Y005744D01*
X015523Y006074D01*
X015523Y007921D01*
X015496Y007893D01*
X015496Y005964D01*
X015882Y005578D01*
X016157Y005578D01*
X016019Y005606D02*
X015551Y006074D01*
X015551Y007728D01*
X016295Y008472D01*
X016295Y009354D01*
X016571Y009354D01*
X016598Y009326D01*
X016653Y009326D01*
X016708Y009381D01*
X016708Y008720D01*
X016736Y008748D01*
X016736Y009354D01*
X016708Y009381D01*
X016626Y009381D01*
X016571Y009547D02*
X016681Y009657D01*
X016681Y010043D01*
X016212Y010043D01*
X016212Y008500D01*
X016074Y008362D01*
X016212Y008224D02*
X016240Y008252D01*
X016240Y008527D01*
X016350Y008637D01*
X016543Y008941D02*
X015606Y008004D01*
X015689Y007921D01*
X015716Y007921D01*
X015606Y008004D02*
X015523Y007921D01*
X016240Y008252D02*
X016708Y008720D01*
X017342Y008362D02*
X017397Y008307D01*
X017397Y008252D01*
X017342Y008362D02*
X017425Y008444D01*
X017452Y008472D01*
X019437Y008472D01*
X019437Y008279D01*
X019409Y008252D01*
X019767Y008252D01*
X021256Y006763D01*
X021283Y006791D01*
X021283Y006819D01*
X019630Y008472D01*
X019905Y008472D01*
X019933Y008444D01*
X021448Y006929D01*
X021448Y007177D01*
X021504Y007177D01*
X021614Y007287D01*
X021063Y007287D01*
X020980Y007370D01*
X021283Y007866D02*
X020015Y009133D01*
X018445Y009133D01*
X018445Y009271D01*
X018362Y009354D01*
X018500Y009464D02*
X018472Y009492D01*
X019134Y009492D01*
X019244Y009602D01*
X019299Y009602D01*
X019547Y009354D01*
X018775Y009354D01*
X018775Y009547D01*
X018885Y009657D01*
X019078Y009657D01*
X018885Y009685D02*
X018665Y009464D01*
X018500Y009464D01*
X018472Y009657D02*
X018637Y009822D01*
X018637Y009878D01*
X018527Y009988D01*
X018307Y009988D01*
X018417Y010098D01*
X018417Y010539D01*
X018610Y010539D01*
X020015Y009133D01*
X019933Y008444D02*
X017425Y008444D01*
X017342Y008362D02*
X016515Y007535D01*
X016515Y006212D01*
X016626Y006322D01*
X016626Y006763D01*
X016543Y006846D01*
X016543Y007039D01*
X016323Y007039D01*
X016295Y007011D01*
X016295Y006791D01*
X016433Y006653D01*
X016571Y007039D02*
X016378Y007232D01*
X016378Y006322D01*
X016460Y006240D01*
X016708Y006240D01*
X016846Y006378D01*
X016846Y007425D01*
X016956Y007535D01*
X016571Y007232D02*
X017590Y008252D01*
X018004Y008252D01*
X018031Y008279D01*
X017921Y008279D01*
X017838Y008196D01*
X017838Y008141D01*
X016736Y007039D01*
X016571Y007039D01*
X014779Y006763D02*
X014779Y008472D01*
X015468Y009161D01*
X015578Y009271D01*
X015578Y010319D01*
X015468Y010456D02*
X016157Y011145D01*
X015783Y011145D01*
X015452Y010815D01*
X015452Y010067D01*
X015452Y008846D01*
X015578Y008913D02*
X015578Y010539D01*
X015468Y010456D02*
X015468Y009161D01*
X015578Y008913D02*
X014614Y007948D01*
X014614Y007397D01*
X014504Y007287D01*
X014504Y007921D01*
X014531Y007948D01*
X014531Y007011D01*
X014421Y006901D01*
X014256Y006874D02*
X014256Y007948D01*
X014779Y008472D01*
X014669Y007204D02*
X014669Y006874D01*
X014779Y006763D01*
X014559Y006598D02*
X014531Y006598D01*
X014256Y006874D01*
X014641Y007177D02*
X014669Y007204D01*
X014641Y007177D02*
X014641Y006433D01*
X016681Y005578D02*
X019574Y005578D01*
X020429Y004724D01*
X021090Y005055D02*
X021421Y005055D01*
X021531Y004944D01*
X021531Y004807D01*
X021752Y005027D01*
X021752Y005110D01*
X021807Y005165D01*
X021889Y005055D02*
X019382Y007563D01*
X019244Y007563D01*
X019161Y007563D01*
X019051Y007452D01*
X019106Y007315D02*
X019382Y007039D01*
X019437Y007039D01*
X019409Y007067D01*
X018996Y007067D01*
X018885Y006956D01*
X018693Y006956D01*
X018748Y006901D01*
X018748Y006488D01*
X018775Y006460D01*
X018775Y006405D01*
X018830Y006460D01*
X019960Y006460D01*
X019767Y006653D01*
X019216Y006653D01*
X019051Y006488D01*
X018334Y006488D01*
X018527Y006681D01*
X018996Y006681D01*
X019271Y006405D01*
X019740Y006405D01*
X021090Y005055D01*
X021338Y004972D02*
X021531Y004972D01*
X021697Y004807D01*
X021559Y004807D01*
X021421Y004669D01*
X021366Y004669D01*
X019823Y006212D01*
X018445Y006212D01*
X018610Y006378D01*
X018610Y006956D01*
X018775Y007122D01*
X018775Y007397D01*
X018858Y007315D01*
X019106Y007315D01*
X019161Y007563D02*
X018527Y007563D01*
X018472Y007507D01*
X018472Y006626D01*
X018582Y006736D01*
X018582Y006929D01*
X018527Y006984D01*
X018527Y007011D01*
X018307Y007011D01*
X018307Y006846D01*
X018527Y006626D01*
X019244Y007563D02*
X021779Y005027D01*
X021779Y004917D01*
X021669Y004807D01*
X021531Y004807D01*
X021504Y004807D01*
X021338Y004972D01*
X021555Y006720D02*
X021476Y006799D01*
X021358Y006799D01*
X021555Y006720D02*
X021673Y006720D01*
X021791Y006838D01*
X021791Y006996D01*
X021673Y007114D01*
X021476Y007862D02*
X022303Y007862D01*
X022618Y007547D01*
X025059Y007547D01*
X025098Y007507D01*
X025086Y007645D02*
X024811Y007645D01*
X025086Y007645D02*
X025500Y007645D01*
X026795Y006350D01*
X026960Y006350D01*
X026354Y006956D01*
X025885Y006956D01*
X026602Y006295D02*
X026933Y005964D01*
X026960Y005964D01*
X026878Y005881D01*
X026795Y005881D01*
X026850Y005826D01*
X027263Y005826D01*
X027071Y006019D01*
X027071Y006074D01*
X027153Y005992D01*
X027291Y005992D01*
X027236Y005937D01*
X026795Y005937D01*
X025086Y007645D01*
X024452Y007866D02*
X026712Y005606D01*
X027622Y005606D01*
X027374Y005854D01*
X027346Y005854D01*
X027622Y006130D01*
X027760Y005992D01*
X027760Y005881D01*
X027649Y005771D01*
X027649Y005716D01*
X027870Y005937D01*
X027870Y005992D01*
X027567Y006295D01*
X026602Y006295D01*
X027511Y007535D02*
X027236Y007811D01*
X027429Y007811D01*
X027456Y007783D01*
X027567Y007783D01*
X027622Y007728D01*
X027511Y007535D02*
X028008Y007535D01*
X028063Y007480D01*
X028338Y007480D01*
X028145Y007673D01*
X028008Y007673D01*
X027760Y007921D01*
X027760Y007948D01*
X028366Y007342D01*
X028448Y007342D01*
X028393Y007397D01*
X028393Y007563D01*
X027870Y008086D01*
X027677Y008086D01*
X027594Y008141D02*
X027622Y008169D01*
X027622Y008279D01*
X027980Y008279D01*
X028559Y007700D01*
X028393Y007700D01*
X028559Y007700D02*
X028614Y007645D01*
X027594Y008141D02*
X027429Y008141D01*
X027374Y008086D01*
X027374Y007976D01*
X027456Y007893D01*
X027539Y009633D02*
X027539Y009952D01*
X027382Y010027D02*
X027342Y010067D01*
X022263Y010067D01*
X022421Y009909D01*
X022578Y009909D01*
X022618Y009870D01*
X027145Y009870D01*
X027382Y009830D02*
X027382Y010027D01*
X027382Y009830D02*
X027460Y009752D01*
X027618Y009752D01*
X027736Y009870D01*
X027736Y009988D01*
X027697Y010027D01*
X027697Y010224D01*
X027657Y010263D01*
X022067Y010263D01*
X020610Y011720D01*
X015452Y011720D01*
X014704Y011720D01*
X014744Y011759D01*
X015216Y011759D01*
X015492Y011759D01*
X015452Y011720D01*
X015492Y011759D02*
X020374Y011759D01*
X020807Y011759D01*
X022382Y010185D01*
X023130Y010185D01*
X023326Y009988D01*
X022500Y009633D02*
X027539Y009633D01*
X024452Y007866D02*
X021283Y007866D01*
X021338Y008693D02*
X021338Y008858D01*
X019051Y011145D01*
X019519Y011145D01*
X021586Y009078D01*
X021697Y008968D01*
X021614Y008968D01*
X021338Y008693D01*
X021421Y008858D02*
X021421Y008941D01*
X021586Y009106D01*
X021586Y009078D01*
X021421Y008858D02*
X021504Y008775D01*
X021669Y008775D01*
X021889Y008996D01*
X021889Y009078D01*
X019823Y011145D01*
X019519Y011145D01*
X019051Y011145D02*
X016157Y011145D01*
X015216Y011759D02*
X014508Y011051D01*
X014508Y009834D01*
X014516Y009834D01*
X014547Y009870D02*
X014547Y010027D01*
X014547Y009870D02*
X014665Y009752D01*
X014783Y009752D01*
X014783Y011444D01*
X014783Y011484D02*
X014744Y011484D01*
X014783Y011484D02*
X014823Y011523D01*
X014744Y011523D01*
X014350Y011130D01*
X014271Y011169D02*
X014271Y011287D01*
X014704Y011720D01*
X014271Y011287D02*
X014232Y011248D01*
X014232Y011130D01*
X014271Y011169D01*
X014232Y011130D02*
X014232Y010696D01*
X014311Y010618D01*
X014232Y010696D02*
X014232Y009712D01*
X014508Y009712D01*
X015452Y010067D02*
X015531Y010145D01*
X016295Y009905D02*
X016295Y009712D01*
X016460Y009547D01*
X016571Y009547D01*
X016295Y009905D02*
X016515Y010126D01*
X016515Y010153D01*
X018307Y009850D02*
X018334Y009822D01*
X018334Y009657D01*
X018472Y009657D01*
X018885Y009685D02*
X018885Y009878D01*
X018582Y010181D01*
X018582Y010319D01*
X020374Y011759D02*
X022500Y009633D01*
X019878Y008279D02*
X018031Y008279D01*
X019437Y008472D02*
X019630Y008472D01*
X018637Y012342D02*
X016212Y012342D01*
X015689Y012866D01*
X015744Y012866D01*
X015854Y012976D01*
X015854Y013086D01*
X015909Y013141D01*
X015992Y013004D02*
X016130Y013141D01*
X016157Y013141D01*
X016571Y012728D01*
X018693Y012728D01*
X018803Y012618D01*
X018803Y012563D01*
X018720Y012480D01*
X018720Y012452D01*
X018637Y012370D01*
X018637Y012342D01*
X018665Y013362D02*
X016763Y013362D01*
X016378Y013748D01*
X016598Y013775D02*
X018307Y013775D01*
X018307Y013637D01*
X018334Y013610D01*
X018307Y013775D02*
X018500Y013775D01*
X018693Y013775D01*
X018858Y013610D01*
X018858Y013500D01*
X018720Y013362D01*
X018665Y013362D02*
X018665Y013444D01*
X018637Y013472D01*
X018748Y013472D01*
X018748Y013720D01*
X016653Y013720D01*
X016598Y013775D01*
X014559Y013775D01*
X012712Y011929D01*
X011004Y011929D01*
X010893Y012039D02*
X012409Y012039D01*
X014145Y013775D01*
X013539Y013775D01*
X013374Y013941D01*
X013622Y013748D02*
X014008Y013748D01*
X013815Y013555D01*
X013622Y013748D01*
X010204Y017165D01*
X010204Y018433D01*
X009350Y019287D01*
X008634Y019287D01*
X008606Y019259D01*
X008606Y018846D01*
X008964Y018846D01*
X009074Y018736D01*
X009102Y018736D01*
X009405Y018433D01*
X009433Y018433D01*
X009984Y017881D01*
X009736Y017881D01*
X008854Y018763D01*
X008468Y018763D01*
X008413Y018708D01*
X008413Y018460D01*
X008551Y018322D01*
X008551Y017909D01*
X008992Y017909D01*
X013567Y013334D01*
X013208Y013582D02*
X013208Y013031D01*
X012850Y012673D01*
X012850Y012618D01*
X012933Y012700D01*
X012933Y013996D01*
X012216Y013637D02*
X012216Y012866D01*
X011996Y012948D02*
X011996Y012783D01*
X011968Y012811D02*
X011968Y013252D01*
X010011Y015208D01*
X008634Y015208D01*
X008606Y015181D01*
X008634Y015208D02*
X008854Y015429D01*
X010094Y015429D01*
X011968Y013555D01*
X011968Y012976D01*
X011996Y012948D01*
X011996Y012976D01*
X011968Y013004D01*
X011885Y013004D01*
X011885Y012756D01*
X011830Y012756D01*
X011693Y012893D01*
X011693Y013417D01*
X010094Y015015D01*
X008496Y015015D01*
X008551Y014960D01*
X008551Y014988D01*
X008165Y015374D01*
X006732Y015374D01*
X006704Y015401D01*
X006511Y015401D01*
X006484Y015374D01*
X006484Y016090D01*
X008220Y016090D01*
X008248Y016118D01*
X008248Y016035D01*
X008193Y015980D01*
X008193Y015842D01*
X006732Y015842D01*
X007090Y015484D01*
X006649Y015153D02*
X006870Y014933D01*
X007145Y014933D01*
X007256Y014822D01*
X007256Y014795D01*
X007173Y014712D01*
X006980Y014712D01*
X006842Y014850D01*
X006842Y014822D01*
X007228Y014437D01*
X007228Y013610D01*
X007090Y013472D01*
X007586Y013472D01*
X007834Y013224D01*
X007834Y014051D01*
X008882Y015098D01*
X008551Y015098D01*
X008358Y014905D01*
X007641Y014905D01*
X007614Y014878D01*
X007614Y013500D01*
X007476Y013362D01*
X007476Y013941D01*
X007752Y014216D01*
X007752Y014464D01*
X008027Y014740D01*
X008248Y014740D01*
X008248Y014630D01*
X007889Y014271D01*
X007889Y014630D01*
X007724Y014795D01*
X008413Y015098D02*
X006291Y015098D01*
X006925Y014464D01*
X006925Y013114D01*
X007008Y013196D01*
X007393Y013196D01*
X007933Y012468D02*
X005098Y012468D01*
X003799Y013767D01*
X003878Y013846D01*
X003878Y013885D01*
X003996Y014004D01*
X004074Y014004D01*
X004193Y014082D02*
X004193Y014122D01*
X005689Y012626D01*
X005823Y012480D02*
X008027Y012480D01*
X008248Y012480D01*
X008909Y013141D01*
X009212Y013141D01*
X009157Y013169D02*
X008413Y012425D01*
X005134Y012425D01*
X004362Y013196D01*
X005464Y012838D02*
X005823Y012480D01*
X005464Y012700D02*
X005464Y012838D01*
X004193Y014082D02*
X003917Y014082D01*
X006208Y015181D02*
X006236Y015153D01*
X006649Y015153D01*
X006291Y015098D02*
X006236Y015153D01*
X006208Y015181D02*
X006208Y016007D01*
X006539Y016338D01*
X008606Y016338D01*
X008716Y016338D01*
X008716Y015952D01*
X008634Y015870D01*
X008661Y015842D02*
X008882Y015842D01*
X009047Y016007D01*
X009295Y016007D01*
X009405Y015897D01*
X009130Y015897D01*
X009074Y015842D01*
X008606Y015842D01*
X008413Y016035D01*
X008413Y015098D01*
X008496Y015015D01*
X008496Y015374D02*
X008578Y015374D01*
X008634Y015429D01*
X008634Y015815D01*
X008661Y015842D01*
X008496Y015842D02*
X008496Y015374D01*
X008606Y015644D02*
X010210Y015644D01*
X009515Y016338D01*
X008716Y016338D01*
X008606Y016338D02*
X008468Y016200D01*
X008468Y016118D01*
X008744Y016145D02*
X008744Y016090D01*
X008496Y015842D01*
X008744Y016145D02*
X008799Y016200D01*
X009295Y016200D01*
X010122Y015374D01*
X010480Y015374D01*
X012216Y013637D01*
X010756Y012452D02*
X010645Y012452D01*
X010563Y012370D01*
X010893Y012039D01*
X011086Y012204D02*
X010287Y013004D01*
X010232Y013004D01*
X010287Y012948D02*
X010315Y012921D01*
X010287Y012948D02*
X009019Y012948D01*
X008937Y013279D02*
X008826Y013279D01*
X008468Y012921D01*
X008468Y013114D01*
X008771Y013417D01*
X010039Y013417D01*
X010094Y013362D01*
X010149Y013307D01*
X010094Y013362D02*
X009212Y013362D01*
X009212Y013334D02*
X009295Y013252D01*
X009212Y013334D02*
X008882Y013334D01*
X008826Y013279D01*
X008795Y013413D02*
X010295Y013413D01*
X010295Y013177D01*
X010374Y013098D01*
X008563Y013098D01*
X008468Y012921D02*
X008027Y012480D01*
X009791Y013141D02*
X010563Y012370D01*
X011114Y012259D02*
X011197Y012259D01*
X011307Y012149D01*
X008854Y010181D02*
X008854Y010043D01*
X008771Y009960D01*
X008634Y009878D02*
X008634Y010429D01*
X008606Y010456D01*
X008606Y010429D01*
X008854Y010181D01*
X007917Y009354D02*
X008027Y009244D01*
X007504Y008500D02*
X006732Y008500D01*
X006567Y008334D01*
X005905Y008334D01*
X006319Y008500D02*
X006732Y008500D01*
X006291Y009271D02*
X005878Y009271D01*
X005602Y009547D01*
X005382Y009822D02*
X005382Y009850D01*
X005712Y010181D01*
X006374Y010181D01*
X006358Y010067D02*
X006358Y009437D01*
X006319Y009397D01*
X004035Y009397D01*
X003878Y009555D01*
X003996Y009555D01*
X004271Y009830D01*
X006122Y009830D01*
X006161Y009870D01*
X006161Y009673D01*
X006240Y009594D01*
X004271Y009594D01*
X004035Y009594D02*
X003878Y009752D01*
X003878Y009909D01*
X004074Y009909D01*
X004074Y009988D01*
X003996Y010067D01*
X006358Y010067D01*
X008248Y007507D02*
X008771Y007507D01*
X006208Y007067D02*
X006208Y005441D01*
X006952Y004696D01*
X007338Y004696D01*
X007393Y004752D01*
X007586Y003759D02*
X006539Y003759D01*
X007586Y003759D02*
X008055Y003759D01*
X008826Y004531D01*
X010149Y004531D01*
X010149Y004696D01*
X010177Y004724D01*
X010177Y004862D01*
X010149Y004779D02*
X010067Y004696D01*
X009350Y004696D01*
X009019Y004366D01*
X009901Y004586D02*
X011169Y003319D01*
X010563Y004779D02*
X010149Y004779D01*
X010508Y004834D02*
X010563Y004779D01*
X020980Y012480D02*
X021118Y012342D01*
X027539Y012342D01*
X029248Y014051D01*
X029248Y018433D01*
X028559Y019122D01*
X027401Y019122D01*
X027539Y018984D01*
X027539Y018956D01*
X027567Y018929D01*
X028504Y018929D01*
X029055Y018378D01*
X029055Y014023D01*
X027594Y012563D01*
X027291Y012563D01*
X027181Y012480D02*
X028862Y014161D01*
X028862Y017937D01*
X028338Y018460D01*
X027649Y019149D01*
X027649Y018791D01*
X027539Y018681D01*
X027539Y018956D01*
X027677Y019094D01*
X027622Y019094D01*
X027484Y018956D01*
X027484Y018929D01*
X027374Y018819D01*
X027374Y018488D01*
X027401Y018460D01*
X028338Y018460D01*
X028035Y018570D02*
X027980Y018515D01*
X027952Y018515D01*
X028779Y017689D01*
X028779Y017000D01*
X028889Y017110D01*
X028917Y017110D01*
X028779Y017000D02*
X028779Y014381D01*
X028889Y014437D02*
X028889Y018322D01*
X028448Y018763D01*
X027586Y018763D01*
X027539Y018811D01*
X027539Y018819D02*
X027897Y018819D01*
X028779Y017937D01*
X028779Y017689D01*
X028669Y017881D02*
X028614Y017937D01*
X028035Y018570D02*
X027677Y018570D01*
X027594Y018653D01*
X027677Y017137D02*
X027291Y017137D01*
X023929Y020500D01*
X023846Y020582D01*
X017315Y020582D01*
X017232Y020500D01*
X017673Y020500D01*
X023929Y020500D01*
X023874Y020279D02*
X023378Y020279D01*
X026960Y016696D01*
X027291Y016696D01*
X026988Y017000D01*
X026960Y017000D01*
X023791Y020169D01*
X023653Y020169D01*
X023874Y020279D02*
X027071Y017082D01*
X027071Y016862D01*
X027153Y016779D01*
X027539Y016779D01*
X027677Y016917D01*
X027484Y016917D01*
X027291Y016724D01*
X027456Y016724D01*
X027594Y016862D01*
X027704Y016752D01*
X027704Y016531D01*
X027649Y016476D01*
X026878Y016476D01*
X022909Y020444D01*
X021448Y018102D02*
X019712Y019838D01*
X019382Y019838D01*
X019464Y019756D01*
X019492Y019756D01*
X021421Y017826D01*
X021421Y017799D01*
X021586Y017964D01*
X021779Y017964D01*
X021779Y017744D01*
X021586Y017551D01*
X021586Y017744D01*
X021586Y017826D02*
X021338Y017578D01*
X021338Y017523D01*
X019023Y019838D01*
X019382Y019838D01*
X019023Y019838D02*
X018086Y019838D01*
X017397Y019149D01*
X017397Y017661D01*
X017563Y017826D01*
X017563Y018901D01*
X018279Y018681D02*
X018279Y018543D01*
X018307Y018515D01*
X018307Y018653D01*
X018500Y018846D01*
X018555Y018846D01*
X018693Y018708D01*
X018720Y018736D01*
X019106Y018736D01*
X018417Y018047D01*
X018417Y017909D01*
X020098Y017909D01*
X021063Y016944D01*
X025472Y016944D01*
X025665Y016752D01*
X026106Y016311D01*
X026106Y015952D01*
X026106Y016311D02*
X027291Y015126D01*
X027622Y015126D01*
X027401Y014905D01*
X027401Y014685D01*
X027456Y014740D01*
X027456Y014850D01*
X027567Y014960D01*
X027760Y014960D01*
X027677Y014878D01*
X027677Y014519D01*
X027649Y014492D01*
X026740Y014492D01*
X024480Y016752D01*
X025665Y016752D01*
X025472Y016531D02*
X027126Y014878D01*
X027236Y014878D01*
X027098Y014740D01*
X027015Y014740D01*
X026795Y014960D01*
X026712Y014960D01*
X025279Y016393D01*
X025141Y016393D01*
X026823Y014712D01*
X026823Y014685D01*
X027319Y012866D02*
X028889Y014437D01*
X027319Y012866D02*
X020870Y012866D01*
X020870Y012852D01*
X026889Y012852D01*
X027015Y012618D02*
X021035Y012618D01*
X019326Y014326D01*
X014008Y014326D01*
X013401Y014933D01*
X013401Y018295D01*
X014338Y019232D01*
X014476Y019232D01*
X014476Y018322D01*
X014256Y018102D01*
X014256Y018295D01*
X014393Y018433D01*
X014641Y018433D01*
X014724Y018350D01*
X014724Y018488D01*
X014669Y018543D01*
X014669Y018736D01*
X014752Y018819D01*
X014393Y018819D01*
X014283Y018708D01*
X014338Y018708D01*
X014393Y018653D01*
X014421Y018681D02*
X014283Y018819D01*
X014283Y018874D01*
X013567Y018157D01*
X013567Y016448D01*
X014256Y017137D01*
X014256Y017303D01*
X014283Y017330D01*
X014283Y018681D01*
X013815Y018212D01*
X013815Y018047D01*
X013760Y017992D01*
X013760Y016889D01*
X013952Y017082D01*
X013952Y017303D01*
X014035Y017385D01*
X014035Y018240D01*
X014338Y018543D01*
X014338Y018626D01*
X014724Y018157D02*
X014724Y018047D01*
X014311Y017633D01*
X015110Y016917D02*
X015275Y017082D01*
X015551Y017358D01*
X016901Y017358D01*
X017094Y017468D02*
X017122Y017441D01*
X017177Y017441D01*
X017397Y017661D01*
X017177Y017441D02*
X016819Y017082D01*
X016323Y017082D01*
X016185Y016944D01*
X015496Y016944D01*
X015358Y016807D01*
X015248Y016807D01*
X014669Y016228D01*
X014669Y015897D01*
X014779Y015787D01*
X014779Y015759D01*
X015082Y016063D01*
X015110Y016063D01*
X015082Y016035D01*
X014972Y016035D01*
X015413Y016476D01*
X015413Y016669D01*
X015551Y016807D01*
X015661Y016807D01*
X015137Y016283D01*
X015000Y016283D01*
X014669Y015952D01*
X014641Y015952D01*
X014366Y016228D01*
X014311Y016228D01*
X014366Y016173D01*
X014366Y015567D01*
X014476Y015456D01*
X014559Y015456D01*
X014586Y015456D02*
X014697Y015346D01*
X014697Y015126D01*
X014559Y014988D01*
X014559Y014960D01*
X015330Y015732D01*
X015330Y016311D01*
X016102Y017082D01*
X015275Y017082D01*
X015110Y016917D02*
X015110Y016421D01*
X015110Y016917D02*
X014504Y016311D01*
X014504Y015704D01*
X014669Y015539D01*
X014669Y015622D02*
X014586Y015539D01*
X014586Y015456D01*
X014448Y015374D02*
X014311Y015511D01*
X014311Y015732D01*
X014448Y015870D01*
X014586Y015870D01*
X014669Y015787D01*
X014669Y015622D01*
X016323Y015704D02*
X016323Y015126D01*
X016378Y015181D02*
X016378Y016228D01*
X016488Y016338D01*
X017204Y016338D01*
X017976Y017110D01*
X018141Y017110D01*
X019244Y017110D01*
X019106Y016972D01*
X018610Y016972D01*
X018141Y017110D02*
X017122Y016090D01*
X017122Y015429D01*
X016653Y014960D01*
X016543Y014960D01*
X016405Y015098D01*
X016405Y015870D01*
X016571Y015704D01*
X016571Y015456D01*
X016598Y015429D01*
X016708Y015429D01*
X016571Y015567D01*
X016571Y015815D01*
X016460Y015704D01*
X016323Y015704D01*
X016571Y015870D02*
X016681Y015980D01*
X016956Y015980D01*
X016929Y016007D01*
X016736Y016007D01*
X016929Y015815D01*
X016929Y015401D01*
X016736Y015208D01*
X016598Y015208D01*
X016681Y015291D01*
X016681Y015787D01*
X016571Y015870D02*
X016571Y016118D01*
X016598Y016145D01*
X017094Y016145D01*
X016323Y017082D02*
X016102Y017082D01*
X016488Y018185D02*
X016212Y018460D01*
X016212Y019480D01*
X017149Y020417D01*
X017149Y020252D01*
X017177Y020224D01*
X017149Y020417D02*
X017232Y020500D01*
X017673Y020500D02*
X016212Y019039D01*
X016212Y018681D01*
X016433Y018460D01*
X016598Y018626D01*
X016736Y018626D01*
X016736Y019425D01*
X016460Y018819D02*
X016295Y018819D01*
X016460Y018653D01*
X016460Y018433D01*
X016433Y018460D01*
X016350Y018460D02*
X016460Y018350D01*
X016515Y018350D01*
X016626Y018460D01*
X016626Y018653D01*
X016460Y018819D01*
X016378Y018598D02*
X016323Y018598D01*
X016350Y018570D01*
X016350Y018460D01*
X016378Y018598D02*
X016543Y018433D01*
X018279Y018681D02*
X018445Y018515D01*
X018445Y018350D01*
X018720Y018240D02*
X018803Y018322D01*
X019437Y018322D01*
X019574Y018185D01*
X019630Y018074D02*
X018748Y018074D01*
X018720Y018102D01*
X018720Y018240D01*
X018775Y018626D02*
X018775Y018984D01*
X018527Y019232D01*
X018775Y019232D01*
X020098Y017909D01*
X020043Y017110D02*
X019244Y017110D01*
X019850Y016862D02*
X021228Y015484D01*
X021559Y015484D01*
X021779Y015704D01*
X021779Y015842D01*
X021614Y015677D01*
X021393Y015677D01*
X021614Y015897D01*
X021614Y015980D01*
X021614Y016090D02*
X021559Y016145D01*
X021008Y016145D01*
X020649Y016504D01*
X020649Y016393D01*
X020842Y016200D01*
X020649Y016504D02*
X020043Y017110D01*
X020181Y016724D02*
X020208Y016724D01*
X021256Y015677D01*
X020043Y015015D02*
X018500Y015015D01*
X018941Y015456D01*
X019409Y015456D01*
X019547Y015484D02*
X019630Y015401D01*
X019712Y015401D01*
X019823Y015291D01*
X018748Y015291D01*
X018582Y015456D01*
X018941Y015456D01*
X018748Y015732D02*
X018637Y015842D01*
X019216Y015842D01*
X019271Y015897D01*
X019492Y015897D01*
X019547Y015842D01*
X019547Y015484D01*
X019823Y015732D02*
X018748Y015732D01*
X018472Y015759D02*
X018472Y015842D01*
X018693Y016063D01*
X019409Y016063D01*
X019437Y016090D01*
X019464Y016090D01*
X019823Y015732D01*
X019492Y016283D02*
X021862Y013913D01*
X021862Y013803D01*
X021697Y013637D01*
X021476Y013637D01*
X021366Y013748D01*
X021366Y013693D01*
X021283Y013610D01*
X021283Y013775D01*
X020043Y015015D01*
X019933Y015126D01*
X018362Y015126D01*
X018334Y015098D01*
X018334Y015511D01*
X018307Y015539D01*
X018307Y015704D01*
X018417Y015704D01*
X018472Y015759D01*
X018472Y015649D01*
X018472Y015842D02*
X018472Y016228D01*
X018417Y016283D01*
X019492Y016283D01*
X021063Y016944D02*
X021256Y016752D01*
X024480Y016752D01*
X024838Y016504D02*
X024866Y016531D01*
X025472Y016531D01*
X021586Y017551D02*
X021559Y017523D01*
X021448Y018102D02*
X021697Y018102D01*
X018775Y018626D02*
X018693Y018708D01*
X019161Y014299D02*
X020815Y012645D01*
X020870Y012645D01*
X021008Y012783D01*
X020815Y012645D02*
X020980Y012480D01*
X027181Y012480D01*
X018720Y013555D02*
X018500Y013775D01*
X014559Y013775D02*
X014145Y013775D01*
X010480Y015374D02*
X010210Y015644D01*
X010011Y017496D02*
X009984Y017496D01*
X009791Y017689D01*
X009763Y017689D01*
X008606Y018846D01*
X008606Y018681D01*
X008744Y018681D02*
X008744Y018653D01*
X008358Y018267D01*
X008358Y017799D01*
X008689Y017468D01*
X009598Y017468D01*
X009763Y017633D01*
X010011Y017496D02*
X010039Y017523D01*
X010039Y018185D01*
X009185Y019039D01*
X009185Y019067D01*
X009157Y019039D01*
X008744Y019039D01*
X008744Y017716D02*
X009074Y017716D01*
X009157Y017633D01*
X006732Y015842D02*
X006456Y015842D01*
X006358Y015933D02*
X006358Y015500D01*
X004114Y016838D02*
X004035Y016838D01*
X003878Y016996D01*
X003878Y017035D01*
X005531Y018689D01*
X006161Y018689D01*
X006240Y018767D01*
X006401Y018874D02*
X006401Y019067D01*
X006374Y019094D01*
X005630Y019094D01*
X005023Y018488D01*
X005189Y018130D02*
X005216Y018102D01*
X006346Y018102D01*
X006374Y018130D01*
X006346Y018157D01*
X005382Y018157D01*
X005531Y018256D02*
X004114Y016838D01*
X003917Y017153D02*
X003720Y017153D01*
X003720Y017193D01*
X005452Y018925D01*
X006397Y018925D01*
X006397Y018256D01*
X005531Y018256D01*
X005409Y018378D02*
X005464Y018433D01*
X006126Y018433D01*
X005988Y018267D02*
X005850Y018267D01*
X005988Y018267D02*
X006126Y018130D01*
X006374Y018130D01*
X005933Y018874D02*
X005795Y018874D01*
X005933Y018874D02*
X006126Y019067D01*
X006319Y019067D01*
M02*
