%
M48
M72
T01C0.0320
T02C0.0433
T03C0.0512
T04C0.0520
%
T01
X7338Y4693
X6358Y6736
X10338Y4693
X11956Y4161
X15956Y4161
X18681Y3681
X18681Y4681
X18681Y12539
X18681Y13539
X15956Y12960
X11956Y12960
X10338Y13256
X7338Y13256
X6358Y15594
X6358Y18594
X6358Y9736
T02
X3996Y9811
X3996Y6661
X3996Y13944
X3996Y17094
T03
X21539Y17811
X21539Y15811
X21539Y13811
X27539Y14811
X27539Y16811
X27539Y18811
X27539Y9952
X27539Y7952
X27539Y5952
X21539Y4952
X21539Y6952
X21539Y8952
T04
X18446Y9834
X16476Y9834
X14516Y9834
X14516Y6884
X16476Y6884
X18446Y6884
X8606Y6884
X8606Y9834
X8606Y15644
X8606Y18594
X14516Y18594
X16476Y18594
X18446Y18594
X18446Y15644
X16476Y15644
X14516Y15644
M30
